<svg xmlns="http://www.w3.org/2000/svg" version="1.1" xmlns:xlink="http://www.w3.org/1999/xlink" xmlns:svgjs="http://svgjs.dev/svgjs" viewBox="0 0 800 800"><defs><filter id="uuunion-blur" x="-100%" y="-100%" width="400%" height="400%" color-interpolation-filters="sRGB">
        <feGaussianBlur in="SourceGraphic" stdDeviation="0 0" result="blur"></feGaussianBlur>
        <feDropShadow stdDeviation="25.846153846153847" in="blur" dx="21" dy="21" flood-color="hsl(339, 67%, 57%)" flood-opacity="0.19" x="0%" y="0%" width="100%" height="100%"></feDropShadow>
      </filter><filter id="uuunion-blur2" x="-100%" y="-100%" width="400%" height="400%" color-interpolation-filters="sRGB">
        <feGaussianBlur in="SourceGraphic" stdDeviation="0 0" result="blur"></feGaussianBlur>
        <feDropShadow stdDeviation="25.846153846153847" in="blur" dx="-21" dy="-21" flood-color="hsl(339, 67%, 57%)" flood-opacity="0.19" x="0%" y="0%" width="100%" height="100%"></feDropShadow>
      </filter><linearGradient gradientTransform="rotate(70, 0.5, 0.5)" x1="50%" y1="0%" x2="50%" y2="100%" id="uuunion-grad"><stop stop-color="hsl(37, 61%, 68%)" offset="10%"></stop><stop stop-color="hsl(339, 67%, 57%)" offset="90%"></stop></linearGradient><linearGradient gradientTransform="rotate(117, 0.5, 0.5)" x1="50%" y1="0%" x2="50%" y2="100%" id="uuunion-grad2"><stop stop-color="hsl(37, 61%, 68%)" offset="25%"></stop><stop stop-color="hsl(339, 67%, 57%)" offset="100%"></stop></linearGradient><linearGradient gradientTransform="rotate(352, 0.5, 0.5)" x1="50%" y1="0%" x2="50%" y2="100%" id="uuunion-grad3"><stop stop-color="hsl(37, 61%, 68%)" offset="0%"></stop><stop stop-color="hsl(339, 67%, 57%)" offset="75%"></stop></linearGradient></defs><path d="M-78.1 -87.11Q-63.64 -84.48 -49.18 -80.76 -34.73 -76.85 -20.27 -73.71 -5.81 -72.11 8.63 -72.44 23.09 -74.62 37.55 -78.11 52 -82.07 66.46 -85.52 80.92 -87.62 95.37 -87.85 109.83 -86.16 124.29 -82.96 138.74 -79.03 153.2 -75.34 167.66 -72.79 182.11 -72.01 196.57 -73.18 211.02 -76.02 225.48 -79.83 239.94 -83.68 254.39 -86.64 268.85 -87.96 283.31 -87.34 297.76 -84.91 312.22 -81.29 326.68 -77.34 341.13 -74.05 355.59 -72.21 370.05 -72.28 384.5 -74.23 398.96 -77.6 413.42 -81.55 427.87 -85.13 442.33 -87.44 456.79 -87.93 471.24 -86.48 485.7 -83.44 500.16 -79.56 514.61 -75.78 529.07 -73.04 543.52 -72 557.98 -72.91 572.44 -75.56 586.89 -79.3 601.35 -83.21 615.81 -86.33 630.26 -87.9 644.72 -87.53 659.18 -85.32 673.63 -81.81 688.09 -77.85 702.55 -74.42 717 -72.35 731.46 -72.16 745.92 -73.88 760.37 -77.1 774.83 -81.03 789.29 -84.71 803.74 -87.23 818.2 -87.98 832.66 -86.78 847.11 -83.91 848.77 -69.1 853.01 -54.28 859.49 -39.46 867.65 -24.65 876.84 -9.83 886.28 4.98 895.21 19.79 902.88 34.61 908.66 49.42 912.07 64.24 912.83 79.06 910.87 93.87 906.37 108.69 899.68 123.51 891.37 138.32 882.12 153.14 872.69 167.95 863.87 182.77 856.38 197.59 850.84 212.4 847.71 227.22 847.24 242.04 849.49 256.85 854.25 271.67 861.14 286.49 869.59 301.3 878.9 316.12 888.3 330.93 897.02 345.75 904.32 360.57 909.62 375.38 912.47 390.2 912.63 405.02 910.1 419.83 905.08 434.65 897.99 449.47 889.41 464.28 880.05 479.1 870.69 493.91 862.1 508.73 854.98 523.55 849.94 538.36 847.37 553.18 847.51 568 850.32 582.81 855.59 597.63 862.88 612.45 871.58 627.26 880.97 642.08 890.29 656.89 898.75 671.71 905.67 686.53 910.46 701.34 912.73 716.16 912.3 730.98 909.2 745.79 903.69 760.61 896.22 775.43 887.41 790.24 877.98 805.06 868.72 819.87 860.4 834.69 853.69 849.51 849.15 864.32 834.66 852.87 820.17 848.05 805.68 851.06 791.19 861.15 776.7 875.85 762.21 891.57 747.72 904.46 733.23 911.35 718.74 910.57 704.25 902.3 689.76 888.57 675.27 872.74 660.78 858.69 646.29 849.85 631.8 848.39 617.31 854.67 602.82 867.15 588.33 882.78 573.84 897.72 559.35 908.32 544.86 911.99 530.37 907.83 515.88 896.85 501.39 881.74 486.9 866.21 472.41 854.05 457.92 848.25 443.43 850.21 428.94 859.47 414.45 873.76 399.96 889.57 385.47 903.04 370.97 910.86 356.48 911.13 341.99 903.78 327.5 890.6 313.01 874.83 298.52 860.32 284.03 850.63 269.54 848.13 255.05 853.43 240.56 865.24 226.07 880.66 211.58 895.91 197.09 907.27 182.6 911.95 168.11 908.81 153.62 898.61 139.13 883.86 124.64 868.15 110.15 855.35 95.66 848.58 81.17 849.5 66.68 857.89 52.19 871.69 37.7 887.52 23.21 901.51 8.72 910.23 -5.76 911.55 -20.25 905.14 -34.74 892.58 -49.23 876.93 -63.72 862.04 -78.21 851.54 -78.48 836.87 -78.86 822.2 -79.34 807.54 -79.88 792.87 -80.42 778.2 -80.93 763.54 -81.36 748.87 -81.68 734.2 -81.86 719.54 -81.89 704.87 -81.75 690.21 -81.48 675.54 -81.08 660.87 -80.59 646.21 -80.05 631.54 -79.51 616.87 -79.01 602.21 -78.59 587.54 -78.28 572.87 -78.12 558.21 -78.11 543.54 -78.26 528.87 -78.55 514.21 -78.96 499.54 -79.46 484.87 -80 470.21 -80.54 455.54 -81.03 440.87 -81.44 426.21 -81.73 411.54 -81.88 396.87 -81.87 382.21 -81.71 367.54 -81.4 352.88 -80.98 338.21 -80.47 323.54 -79.93 308.88 -79.39 294.21 -78.91 279.54 -78.51 264.88 -78.23 250.21 -78.1 235.54 -78.13 220.88 -78.31 206.21 -78.63 191.54 -79.06 176.88 -79.57 162.21 -80.12 147.54 -80.65 132.88 -81.13 118.21 -81.52 103.54 -81.78 88.88 -81.89 74.21 -81.85 59.55 -81.65 44.88 -81.32 30.21 -80.87 15.55 -80.36 0.88 -79.81 -13.78 -79.28 -28.44 -78.81 -43.11 -78.44 -57.78 -78.19 -72.44 -78.1 -87.11" fill="url(#uuunion-grad)"></path><path d="M-78.1 -87.11Q-78.19 -72.44 -78.44 -57.78 -78.81 -43.11 -79.28 -28.44 -79.81 -13.78 -80.36 0.88 -80.87 15.55 -81.32 30.21 -81.65 44.88 -81.85 59.55 -81.89 74.21 -81.78 88.88 -81.52 103.54 -81.13 118.21 -80.65 132.88 -80.12 147.54 -79.57 162.21 -79.06 176.88 -78.63 191.54 -78.31 206.21 -78.13 220.88 -78.1 235.54 -78.23 250.21 -78.51 264.88 -78.91 279.54 -79.39 294.21 -79.93 308.88 -80.47 323.54 -80.98 338.21 -81.4 352.88 -81.71 367.54 -81.87 382.21 -71.51 386.18 -61.15 391.67 -50.8 398.08 -40.44 404.7 -30.08 410.8 -19.72 415.71 -0.31 419.7 3.04 419.95 15.92 411.33 28.74 399.77 41.5 386.22 54.17 371.95 66.74 358.31 79.2 346.57 91.54 337.6 103.76 331.83 115.86 329.12 127.82 328.82 139.67 329.89 151.39 331.06 163.02 331.09 174.55 328.91 186 323.9 197.4 315.88 208.77 305.21 220.12 292.68 231.48 279.39 242.88 266.54 254.34 255.24 265.9 246.31 277.56 240.17 289.37 236.74 301.34 235.49 313.48 235.54 325.83 235.8 338.39 235.16 351.18 232.69 364.19 227.8 377.44 220.3 390.92 210.45 404.64 198.91 418.57 186.61 432.7 174.58 447.01 163.81 461.49 155.02 476.1 148.6 490.82 144.52 505.61 142.38 520.43 141.42 535.25 140.74 550.02 139.38 564.71 136.54 579.28 131.67 593.69 124.59 607.89 115.49 621.86 104.91 635.56 93.6 648.95 82.44 662.02 72.26 674.74 63.69 687.09 57.09 699.07 52.46 710.67 49.47 721.88 47.54 732.72 45.9 743.2 43.77 753.33 40.47 763.16 35.53 772.69 28.79 781.98 20.36 791.07 10.69 800 0.36 790.09 -17.14 781.29 -34.66 774.6 -52.17 770.75 -69.69 770.18 -87.21 772.96 -104.72 775.53 -129.46 757.62 -134.42 742.95 -133.5 728.28 -134.15 713.61 -136.22 698.94 -139.19 684.26 -142.37 669.59 -144.96 654.92 -146.36 640.25 -146.22 625.58 -144.57 610.91 -141.82 596.24 -138.62 581.56 -135.76 566.89 -133.92 552.22 -133.55 537.55 -134.74 522.88 -137.2 508.21 -140.34 493.53 -143.39 478.86 -145.62 464.19 -146.49 449.52 -145.79 434.85 -143.69 420.18 -140.69 405.5 -137.53 390.83 -134.96 376.16 -133.61 361.49 -133.8 346.82 -135.49 332.15 -138.27 317.48 -141.47 302.8 -144.31 288.13 -146.11 273.46 -146.42 258.79 -145.19 244.12 -142.69 229.45 -139.55 214.77 -136.51 200.1 -134.32 185.43 -133.5 170.76 -134.25 156.09 -136.39 141.42 -139.4 126.74 -142.56 112.07 -145.09 97.4 -146.4 82.73 -146.15 68.06 -144.42 53.39 -141.62 38.72 -138.42 24.04 -135.6 9.37 -133.85 -5.29 -133.58 -19.96 -134.87 -34.63 -137.39 -49.3 -140.54 -63.98 -143.56 -78.65 -145.72 -93.32 -146.49 -107.99 -145.7 -122.66 -143.52 -131.67 -128.51 -114.22 -115.26 -105.07 -109.19 -96.01 -102.54 -87.02 -95.2 -78.1 -87.11" fill="url(#uuunion-grad2)" filter="url(#uuunion-blur)"></path><path d="M829.6 400.73Q839.96 394.15 850.32 388.22 860.68 383.58 871.03 380.74 881.39 380.03 891.75 381.51 902.11 385.03 912.47 390.2 912.63 405.02 910.1 419.83 905.08 434.65 897.99 449.47 889.41 464.28 880.05 479.1 870.69 493.91 862.1 508.73 854.98 523.55 849.94 538.36 847.37 553.18 847.51 568 850.32 582.81 855.59 597.63 862.88 612.45 871.58 627.26 880.97 642.08 890.29 656.89 898.75 671.71 905.67 686.53 910.46 701.34 912.73 716.16 912.3 730.98 909.2 745.79 903.69 760.61 896.22 775.43 887.41 790.24 877.98 805.06 868.72 819.87 860.4 834.69 853.69 849.51 849.15 864.32 835.86 853.59 822.56 848.31 809.26 849.6 795.96 857.17 782.66 869.46 769.37 883.93 756.07 897.59 742.77 907.61 729.47 911.91 716.18 909.62 702.88 901.19 689.58 888.38 676.28 873.83 662.98 860.56 649.69 851.31 636.39 848 623.09 851.3 609.79 860.54 596.5 873.8 583.2 888.35 569.9 901.17 556.6 909.6 543.3 911.92 530.01 907.63 516.71 897.62 503.41 883.96 490.11 869.49 476.81 857.19 463.52 849.61 450.22 848.31 436.92 853.57 423.62 864.29 410.33 878.27 397.03 892.6 383.73 904.32 370.43 911.01 357.13 911.29 343.84 905.09 330.54 893.7 317.24 879.47 303.94 865.35 290.64 854.26 277.35 848.5 264.05 849.25 250.75 856.36 237.45 868.36 224.16 882.77 210.86 896.6 197.56 907 184.26 911.81 170.96 910.04 157.67 902.05 144.37 889.5 131.07 874.99 117.77 861.51 104.47 851.85 91.18 848.02 77.88 850.8 64.58 859.62 51.28 872.66 37.99 887.21 24.69 900.28 4.78 905.43 -1.71 891.48 -1.57 881.23 -1.41 870.98 -1.24 860.73 -1.05 850.48 -0.53 835.11 0.31 830 13.12 821.04 26.01 807.46 38.99 790.56 52.02 772.18 65.1 754.42 78.21 739.21 91.33 728.07 104.43 721.77 117.5 720.28 130.52 722.73 143.46 727.61 156.31 732.97 169.05 736.85 181.65 737.54 194.12 733.89 206.43 725.5 218.58 712.79 230.57 696.92 242.39 679.55 254.05 662.6 265.54 647.88 276.89 636.81 288.11 630.17 299.21 627.97 310.21 629.47 321.14 633.31 332.01 637.73 342.87 640.93 353.74 641.3 364.65 637.75 375.64 629.87 386.72 618 397.95 603.13 409.33 586.77 420.92 570.66 432.72 556.48 444.76 545.55 457.06 538.62 469.65 535.77 482.52 536.35 495.69 539.16 509.16 542.64 522.92 545.11 536.97 545.11 551.29 541.6 565.87 534.17 580.68 523.07 595.68 509.18 610.86 493.83 626.17 478.59 641.57 464.99 657.02 454.26 672.47 447.12 687.88 443.66 703.2 443.37 718.37 445.18 733.36 447.69 748.12 449.4 762.6 448.97 776.76 445.44 790.57 438.39 804 428.02 817.02 415.08 829.6 400.73 829.6 400.73 829.6 400.73" fill="url(#uuunion-grad3)" filter="url(#uuunion-blur2)"></path></svg>