<svg id="Layer_2" data-name="Layer 2" xmlns="http://www.w3.org/2000/svg" viewBox="0 0 2000 2000"><defs><style>
.cls-1{fill:none;stroke-linejoin:round;stroke-width:199px;stroke-linecap: round;

stroke-dasharray: 10000;
  stroke-dashoffset: 10000;
  animation: dash 5s linear forwards;
}
.r1{stroke:#FF3F76; animation-duration: 5s;}
.r2{stroke:#E80069; animation-duration: 7.5s;}
.r3{stroke:#91005a;animation-duration: 10s;}

@keyframes dash {
  to {
    stroke-dashoffset: 0;
  }
}
</style></defs><title>Wiggle3</title>
<path class="cls-1 r1" d="M1140.13,79.47C1025.22,53,936.83,141.34,963.35,256.24h0C989.87,371.15,901.48,459.54,786.57,433h0C671.67,406.5,583.28,494.89,609.8,609.8h0C636.31,724.7,547.93,813.09,433,786.57h0c-114.9-26.51-203.29,61.88-176.78,176.78h0c26.52,114.91-61.87,203.29-176.77,176.78h0"/>
<path class="cls-1 r2" d="M1279.11,218.45c-114.9-26.52-203.29,61.87-176.78,176.78h0c26.52,114.9-61.87,203.29-176.77,176.77h0c-114.91-26.51-203.3,61.88-176.78,176.78h0C775.3,863.69,686.91,952.07,572,925.56h0C457.1,899,368.71,987.43,395.23,1102.33h0c26.51,114.91-61.87,203.3-176.78,176.78h0"/>
<path class="cls-1 r3" d="M1420.53,359.87c-114.9-26.51-203.29,61.87-176.77,176.78h0c26.51,114.9-61.88,203.29-176.78,176.78h0C952.07,686.91,863.69,775.3,890.2,890.2h0c26.52,114.91-61.87,203.3-176.77,176.78h0c-114.91-26.52-203.3,61.87-176.78,176.78h0c26.52,114.9-61.87,203.29-176.78,176.77h0"/>
</svg>